                                                                        S      1
,,11HKey Cap v12,11HKey Cap v12,7Hunknown,7Hunknown,32,38,7,99,15,,1.,2,G      1
2HMM,1,0.08,15H20200707.094610,0.01,10000.,7Hunknown,7Hunknown,11,0,15H2G      2
0181002.025629;                                                         G      3
     186       1                                                00000000D      1
     186            -183       1       0                               0D      2
     514       2                                                00010000D      3
     514                       2       1                               0D      4
     510       4                                                00010000D      5
     510            -183       1       1                               0D      6
     510       5                                                00010000D      7
     510            -183       1       1                               0D      8
     510       6                                                00010000D      9
     510            -183       1       1                               0D     10
     510       7                                                00010000D     11
     510            -183       1       1                               0D     12
     510       8                                                00010000D     13
     510            -183       1       1                               0D     14
     510       9                                                00010000D     15
     510            -183       1       1                               0D     16
     510      10                                                00010000D     17
     510            -183       1       1                               0D     18
     510      11                                                00010000D     19
     510            -183       1       1                               0D     20
     510      12                                                00010000D     21
     510            -183       1       1                               0D     22
     510      13                                                00010000D     23
     510            -183       1       1                               0D     24
     510      14                                                00010000D     25
     510            -183       1       1                               0D     26
     510      15                                                00010000D     27
     510            -183       1       1                               0D     28
     510      16                                                00010000D     29
     510            -183       1       1                               0D     30
     510      17                                                00010000D     31
     510            -183       1       1                               0D     32
     510      18                                                00010000D     33
     510            -183       1       1                               0D     34
     510      19                                                00010000D     35
     510            -183       1       1                               0D     36
     508      20                                                00010000D     37
     508                       1       1                               0D     38
     508      21                                                00010000D     39
     508                       1       1                               0D     40
     508      22                                                00010000D     41
     508                       1       1                               0D     42
     508      23                                                00010000D     43
     508                       1       1                               0D     44
     508      24                                                00010000D     45
     508                       1       1                               0D     46
     508      25                                                00010000D     47
     508                       1       1                               0D     48
     508      26                                                00010000D     49
     508                       1       1                               0D     50
     508      27                                                00010000D     51
     508                       1       1                               0D     52
     508      28                                                00010000D     53
     508                       1       1                               0D     54
     508      29                                                00010000D     55
     508                       1       1                               0D     56
     508      30                                                00010000D     57
     508                       1       1                               0D     58
     508      31                                                00010000D     59
     508                       1       1                               0D     60
     508      32                                                00010000D     61
     508                       1       1                               0D     62
     508      33                                                00010000D     63
     508                       1       1                               0D     64
     508      34                                                00010000D     65
     508                       1       1                               0D     66
     508      35                                                00010000D     67
     508                       1       1                               0D     68
     508      36                                                00010000D     69
     508                       1       1                               0D     70
     508      37                                                00010000D     71
     508                       1       1                               0D     72
     126      38                                                00010000D     73
     126       0               3       0                               0D     74
     126      41                                                00010000D     75
     126       0               3       0                               0D     76
     126      44                                                00010000D     77
     126       0               3       0                               0D     78
     126      47                                                00010000D     79
     126       0               3       0                               0D     80
     126      50                                                00010000D     81
     126       0               3       0                               0D     82
     126      53                                                00010000D     83
     126       0               4       0                               0D     84
     126      57                                                00010000D     85
     126       0               3       0                               0D     86
     126      60                                                00010000D     87
     126       0               3       0                               0D     88
     126      63                                                00010000D     89
     126       0               4       0                               0D     90
     126      67                                                00010000D     91
     126       0               3       0                               0D     92
     126      70                                                00010000D     93
     126       0               3       0                               0D     94
     126      73                                                00010000D     95
     126       0               3       0                               0D     96
     126      76                                                00010000D     97
     126       0               3       0                               0D     98
     126      79                                                00010000D     99
     126       0               3       0                               0D    100
     126      82                                                00010000D    101
     126       0               3       0                               0D    102
     126      85                                                00010000D    103
     126       0               3       0                               0D    104
     126      88                                                00010000D    105
     126       0               3       0                               0D    106
     126      91                                                00010000D    107
     126       0               3       0                               0D    108
     126      94                                                00010000D    109
     126       0               3       0                               0D    110
     126      97                                                00010000D    111
     126       0               3       0                               0D    112
     126     100                                                00010000D    113
     126       0               3       0                               0D    114
     126     103                                                00010000D    115
     126       0               3       0                               0D    116
     126     106                                                00010000D    117
     126       0               3       0                               0D    118
     126     109                                                00010000D    119
     126       0               3       0                               0D    120
     126     112                                                00010000D    121
     126       0               3       0                               0D    122
     126     115                                                00010000D    123
     126       0               3       0                               0D    124
     126     118                                                00010000D    125
     126       0               3       0                               0D    126
     126     121                                                00010000D    127
     126       0               3       0                               0D    128
     126     124                                                00010000D    129
     126       0               3       0                               0D    130
     126     127                                                00010000D    131
     126       0               3       0                               0D    132
     126     130                                                00010000D    133
     126       0               3       0                               0D    134
     126     133                                                00010000D    135
     126       0               3       0                               0D    136
     126     136                                                00010000D    137
     126       0               3       0                               0D    138
     126     139                                                00010000D    139
     126       0               3       0                               0D    140
     126     142                                                00010000D    141
     126       0               3       0                               0D    142
     126     145                                                00010000D    143
     126       0               3       0                               0D    144
     128     148                                                00010000D    145
     128       0    -183       5       0                               0D    146
     128     153                                                00010000D    147
     128       0    -183       5       0                               0D    148
     128     158                                                00010000D    149
     128       0    -183       5       0                               0D    150
     128     163                                                00010000D    151
     128       0    -183       5       0                               0D    152
     128     168                                                00010000D    153
     128       0    -183       5       0                               0D    154
     128     173                                                00010000D    155
     128       0    -183       5       0                               0D    156
     128     178                                                00010000D    157
     128       0    -183       5       0                               0D    158
     128     183                                                00010000D    159
     128       0    -183       5       0                               0D    160
     128     188                                                00010000D    161
     128       0    -183       5       0                               0D    162
     128     193                                                00010000D    163
     128       0    -183       5       0                               0D    164
     128     198                                                00010000D    165
     128       0    -183       5       0                               0D    166
     128     203                                                00010000D    167
     128       0    -183       5       0                               0D    168
     128     208                                                00010000D    169
     128       0    -183       5       0                               0D    170
     128     213                                                00010000D    171
     128       0    -183       5       0                               0D    172
     128     218                                                00010000D    173
     128       0    -183       5       0                               0D    174
     128     223                                                00010000D    175
     128       0    -183       5       0                               0D    176
     502     228                                                00010000D    177
     502                      16       1                               0D    178
     504     244                                                00010001D    179
     504                      10       1                               0D    180
     406     254                                                00000000D    181
     406                       1      15                               0D    182
     314     255                                                00000200D    183
     314                       2       0                               0D    184
186,3,1,0,0,1,181;                                                     1P      1
514,16,5,1,7,1,9,1,11,1,13,1,15,1,17,1,19,1,21,1,23,1,25,1,27,1,       3P      2
29,1,31,1,33,1,35,1;                                                   3P      3
510,145,1,1,37;                                                        5P      4
510,147,1,1,39;                                                        7P      5
510,149,1,1,41;                                                        9P      6
510,151,1,1,43;                                                       11P      7
510,153,1,1,45;                                                       13P      8
510,155,3,1,47,49,51;                                                 15P      9
510,157,1,1,53;                                                       17P     10
510,159,1,1,55;                                                       19P     11
510,161,1,1,57;                                                       21P     12
510,163,1,1,59;                                                       23P     13
510,165,1,1,61;                                                       25P     14
510,167,1,1,63;                                                       27P     15
510,169,1,1,65;                                                       29P     16
510,171,1,1,67;                                                       31P     17
510,173,1,1,69;                                                       33P     18
510,175,1,1,71;                                                       35P     19
508,4,0,179,1,0,0,0,179,2,1,0,0,179,3,0,0,0,179,4,0,0;                37P     20
508,4,0,179,5,0,0,0,179,4,1,0,0,179,6,0,0,0,179,7,0,0;                39P     21
508,4,0,179,8,0,0,0,179,7,1,0,0,179,9,0,0,0,179,10,0,0;               41P     22
508,4,0,179,11,0,0,0,179,10,1,0,0,179,12,0,0,0,179,2,0,0;             43P     23
508,4,0,179,11,1,0,0,179,1,1,0,0,179,5,1,0,0,179,8,1,0;               45P     24
508,4,0,179,13,1,0,0,179,14,1,0,0,179,15,1,0,0,179,16,1,0;            47P     25
508,4,0,179,3,1,0,0,179,12,1,0,0,179,9,1,0,0,179,6,1,0;               49P     26
508,4,0,179,17,1,0,0,179,18,1,0,0,179,19,1,0,0,179,20,1,0;            51P     27
508,4,0,179,14,0,0,0,179,21,1,0,0,179,22,0,0,0,179,23,0,0;            53P     28
508,4,0,179,15,0,0,0,179,23,1,0,0,179,24,0,0,0,179,25,0,0;            55P     29
508,4,0,179,16,0,0,0,179,25,1,0,0,179,26,0,0,0,179,27,0,0;            57P     30
508,4,0,179,13,0,0,0,179,27,1,0,0,179,28,0,0,0,179,21,0,0;            59P     31
508,4,0,179,28,1,0,0,179,26,1,0,0,179,24,1,0,0,179,22,1,0;            61P     32
508,4,0,179,29,0,0,0,179,30,1,0,0,179,17,0,0,0,179,31,0,0;            63P     33
508,4,0,179,32,0,0,0,179,31,1,0,0,179,20,0,0,0,179,33,0,0;            65P     34
508,4,0,179,34,0,0,0,179,33,1,0,0,179,19,0,0,0,179,35,0,0;            67P     35
508,4,0,179,36,0,0,0,179,35,1,0,0,179,18,0,0,0,179,30,0,0;            69P     36
508,4,0,179,36,1,0,0,179,29,1,0,0,179,32,1,0,0,179,34,1,0;            71P     37
126,1,1,0,0,1,0,0.,0.,0.3,0.3,1.,1.,17.7312431403341,0.,              73P     38
17.3607473073416,17.7312431403341,0.,14.3607473073416,0.,0.3,0.,      73P     39
0.,0.;                                                                73P     40
126,1,1,0,0,1,0,0.,0.,0.2,0.2,1.,1.,17.7312431403341,0.,              75P     41
17.3607473073416,17.7312431403341,2.,17.3607473073416,0.,0.2,0.,      75P     42
0.,0.;                                                                75P     43
126,1,1,0,0,1,0,-0.11,-0.11,0.19,0.19,1.,1.,17.7312431403341,2.,      77P     44
14.3607473073416,17.7312431403341,2.,17.3607473073416,-0.11,          77P     45
0.19,0.,0.,0.;                                                        77P     46
126,1,1,0,0,1,0,0.,0.,0.2,0.2,1.,1.,17.7312431403341,0.,              79P     47
14.3607473073416,17.7312431403341,2.,14.3607473073416,0.,0.2,0.,      79P     48
0.,0.;                                                                79P     49
126,1,1,0,0,1,0,0.,0.,0.1,0.1,1.,1.,17.7312431403341,0.,              81P     50
14.3607473073416,18.7312431403341,0.,14.3607473073416,0.,0.1,0.,      81P     51
0.,0.;                                                                81P     52
126,1,1,0,0,1,0,-0.145,-0.145,-0.0449999999999997,                    83P     53
-0.0449999999999997,1.,1.,18.7312431403341,2.,14.3607473073416,       83P     54
17.7312431403341,2.,14.3607473073416,-0.145,-0.0449999999999997,      83P     55
0.,0.,0.;                                                             83P     56
126,1,1,0,0,1,0,0.,0.,0.2,0.2,1.,1.,18.7312431403341,0.,              85P     57
14.3607473073416,18.7312431403341,2.,14.3607473073416,0.,0.2,0.,      85P     58
0.,0.;                                                                85P     59
126,1,1,0,0,1,0,0.,0.,0.3,0.3,1.,1.,18.7312431403341,0.,              87P     60
14.3607473073416,18.7312431403341,0.,17.3607473073416,0.,0.3,0.,      87P     61
0.,0.;                                                                87P     62
126,1,1,0,0,1,0,-0.0399999999999998,-0.0399999999999998,0.26,         89P     63
0.26,1.,1.,18.7312431403341,2.,17.3607473073416,                      89P     64
18.7312431403341,2.,14.3607473073416,-0.0399999999999998,0.26,        89P     65
0.,0.,0.;                                                             89P     66
126,1,1,0,0,1,0,0.,0.,0.2,0.2,1.,1.,18.7312431403341,0.,              91P     67
17.3607473073416,18.7312431403341,2.,17.3607473073416,0.,0.2,0.,      91P     68
0.,0.;                                                                91P     69
126,1,1,0,0,1,0,0.,0.,0.1,0.1,1.,1.,18.7312431403341,0.,              93P     70
17.3607473073416,17.7312431403341,0.,17.3607473073416,0.,0.1,0.,      93P     71
0.,0.;                                                                93P     72
126,1,1,0,0,1,0,0.095,0.095,0.195,0.195,1.,1.,17.7312431403341,       95P     73
2.,17.3607473073416,18.7312431403341,2.,17.3607473073416,0.095,       95P     74
0.195,0.,0.,0.;                                                       95P     75
126,1,1,0,0,1,0,-0.5295,-0.5295,0.1765,0.1765,1.,1.,                  97P     76
10.8012431403341,2.,20.0907473073416,10.8012431403341,2.,             97P     77
13.0307473073416,-0.5295,0.1765,0.,0.,0.;                             97P     78
126,1,1,0,0,1,0,-0.7545,-0.7545,0.2515,0.2515,1.,1.,                  99P     79
10.8012431403341,2.,13.0307473073416,20.8612431403341,2.,             99P     80
13.0307473073416,-0.7545,0.2515,0.,0.,0.;                             99P     81
126,1,1,0,0,1,0,-0.5295,-0.5295,0.1765,0.1765,1.,1.,                 101P     82
20.8612431403341,2.,13.0307473073416,20.8612431403341,2.,            101P     83
20.0907473073416,-0.5295,0.1765,0.,0.,0.;                            101P     84
126,1,1,0,0,1,0,-0.7545,-0.7545,0.2515,0.2515,1.,1.,                 103P     85
20.8612431403341,2.,20.0907473073416,10.8012431403341,2.,            103P     86
20.0907473073416,-0.7545,0.2515,0.,0.,0.;                            103P     87
126,1,1,0,0,1,0,-0.3,-0.3,0.,0.,1.,1.,12.4312431403341,2.,           105P     88
14.3607473073416,12.4312431403341,2.,17.3607473073416,-0.3,0.,       105P     89
0.,0.,0.;                                                            105P     90
126,1,1,0,0,1,0,-0.1,-0.1,0.,0.,1.,1.,12.4312431403341,2.,           107P     91
17.3607473073416,13.4312431403341,2.,17.3607473073416,-0.1,0.,       107P     92
0.,0.,0.;                                                            107P     93
126,1,1,0,0,1,0,-0.3,-0.3,0.,0.,1.,1.,13.4312431403341,2.,           109P     94
17.3607473073416,13.4312431403341,2.,14.3607473073416,-0.3,0.,       109P     95
0.,0.,0.;                                                            109P     96
126,1,1,0,0,1,0,-0.1,-0.1,0.,0.,1.,1.,13.4312431403341,2.,           111P     97
14.3607473073416,12.4312431403341,2.,14.3607473073416,-0.1,0.,       111P     98
0.,0.,0.;                                                            111P     99
126,1,1,0,0,1,0,0.,0.,0.5,0.5,1.,1.,10.8012431403341,2.,             113P    100
13.0307473073416,10.8012431403341,7.,13.0307473073416,0.,0.5,0.,     113P    101
0.,0.;                                                               113P    102
126,1,1,0,0,1,0,-0.2515,-0.2515,0.7545,0.7545,1.,1.,                 115P    103
20.8612431403341,7.,13.0307473073416,10.8012431403341,7.,            115P    104
13.0307473073416,-0.2515,0.7545,0.,0.,0.;                            115P    105
126,1,1,0,0,1,0,0.,0.,0.5,0.5,1.,1.,20.8612431403341,2.,             117P    106
13.0307473073416,20.8612431403341,7.,13.0307473073416,0.,0.5,0.,     117P    107
0.,0.;                                                               117P    108
126,1,1,0,0,1,0,-0.1765,-0.1765,0.5295,0.5295,1.,1.,                 119P    109
20.8612431403341,7.,20.0907473073416,20.8612431403341,7.,            119P    110
13.0307473073416,-0.1765,0.5295,0.,0.,0.;                            119P    111
126,1,1,0,0,1,0,0.,0.,0.5,0.5,1.,1.,20.8612431403341,2.,             121P    112
20.0907473073416,20.8612431403341,7.,20.0907473073416,0.,0.5,0.,     121P    113
0.,0.;                                                               121P    114
126,1,1,0,0,1,0,-0.2515,-0.2515,0.7545,0.7545,1.,1.,                 123P    115
10.8012431403341,7.,20.0907473073416,20.8612431403341,7.,            123P    116
20.0907473073416,-0.2515,0.7545,0.,0.,0.;                            123P    117
126,1,1,0,0,1,0,0.,0.,0.5,0.5,1.,1.,10.8012431403341,2.,             125P    118
20.0907473073416,10.8012431403341,7.,20.0907473073416,0.,0.5,0.,     125P    119
0.,0.;                                                               125P    120
126,1,1,0,0,1,0,-0.1765,-0.1765,0.5295,0.5295,1.,1.,                 127P    121
10.8012431403341,7.,13.0307473073416,10.8012431403341,7.,            127P    122
20.0907473073416,-0.1765,0.5295,0.,0.,0.;                            127P    123
126,1,1,0,0,1,0,0.,0.,0.3,0.3,1.,1.,12.4312431403341,0.,             129P    124
17.3607473073416,12.4312431403341,0.,14.3607473073416,0.,0.3,0.,     129P    125
0.,0.;                                                               129P    126
126,1,1,0,0,1,0,0.,0.,0.2,0.2,1.,1.,12.4312431403341,0.,             131P    127
17.3607473073416,12.4312431403341,2.,17.3607473073416,0.,0.2,0.,     131P    128
0.,0.;                                                               131P    129
126,1,1,0,0,1,0,0.,0.,0.2,0.2,1.,1.,12.4312431403341,0.,             133P    130
14.3607473073416,12.4312431403341,2.,14.3607473073416,0.,0.2,0.,     133P    131
0.,0.;                                                               133P    132
126,1,1,0,0,1,0,0.,0.,0.1,0.1,1.,1.,12.4312431403341,0.,             135P    133
14.3607473073416,13.4312431403341,0.,14.3607473073416,0.,0.1,0.,     135P    134
0.,0.;                                                               135P    135
126,1,1,0,0,1,0,0.,0.,0.2,0.2,1.,1.,13.4312431403341,0.,             137P    136
14.3607473073416,13.4312431403341,2.,14.3607473073416,0.,0.2,0.,     137P    137
0.,0.;                                                               137P    138
126,1,1,0,0,1,0,0.,0.,0.3,0.3,1.,1.,13.4312431403341,0.,             139P    139
14.3607473073416,13.4312431403341,0.,17.3607473073416,0.,0.3,0.,     139P    140
0.,0.;                                                               139P    141
126,1,1,0,0,1,0,0.,0.,0.2,0.2,1.,1.,13.4312431403341,0.,             141P    142
17.3607473073416,13.4312431403341,2.,17.3607473073416,0.,0.2,0.,     141P    143
0.,0.;                                                               141P    144
126,1,1,0,0,1,0,0.,0.,0.1,0.1,1.,1.,13.4312431403341,0.,             143P    145
17.3607473073416,12.4312431403341,0.,17.3607473073416,0.,0.1,0.,     143P    146
0.,0.;                                                               143P    147
128,1,1,1,1,0,0,1,0,0,-0.001,-0.001,0.301,0.301,-0.001,-0.001,       145P    148
0.201,0.201,1.,1.,1.,1.,17.7312431403341,-0.01,14.3507473073416,     145P    149
17.7312431403341,-0.01,17.3707473073416,17.7312431403341,2.01,       145P    150
14.3507473073416,17.7312431403341,2.01,17.3707473073416,-0.001,      145P    151
0.301,-0.001,0.201;                                                  145P    152
128,1,1,1,1,0,0,1,0,0,-0.001,-0.001,0.101,0.101,-0.001,-0.001,       147P    153
0.201,0.201,1.,1.,1.,1.,18.7412431403341,-0.01,14.3607473073416,     147P    154
17.7212431403341,-0.01,14.3607473073416,18.7412431403341,2.01,       147P    155
14.3607473073416,17.7212431403341,2.01,14.3607473073416,-0.001,      147P    156
0.101,-0.001,0.201;                                                  147P    157
128,1,1,1,1,0,0,1,0,0,-0.001,-0.001,0.301,0.301,-0.001,-0.001,       149P    158
0.201,0.201,1.,1.,1.,1.,18.7312431403341,-0.01,17.3707473073416,     149P    159
18.7312431403341,-0.01,14.3507473073416,18.7312431403341,2.01,       149P    160
17.3707473073416,18.7312431403341,2.01,14.3507473073416,-0.001,      149P    161
0.301,-0.001,0.201;                                                  149P    162
128,1,1,1,1,0,0,1,0,0,-0.001,-0.001,0.101,0.101,-0.001,-0.001,       151P    163
0.201,0.201,1.,1.,1.,1.,17.7212431403341,-0.01,17.3607473073416,     151P    164
18.7412431403341,-0.01,17.3607473073416,17.7212431403341,2.01,       151P    165
17.3607473073416,18.7412431403341,2.01,17.3607473073416,-0.001,      151P    166
0.101,-0.001,0.201;                                                  151P    167
128,1,1,1,1,0,0,1,0,0,-0.051,-0.051,0.051,0.051,-0.151,-0.151,       153P    168
0.151,0.151,1.,1.,1.,1.,18.7412431403341,0.,17.3707473073416,        153P    169
17.7212431403341,0.,17.3707473073416,18.7412431403341,0.,            153P    170
14.3507473073416,17.7212431403341,0.,14.3507473073416,-0.051,        153P    171
0.051,-0.151,0.151;                                                  153P    172
128,1,1,1,1,0,0,1,0,0,-0.354,-0.354,0.354,0.354,-0.504,-0.504,       155P    173
0.504,0.504,1.,1.,1.,1.,10.7912431403341,2.,20.1007473073416,        155P    174
10.7912431403341,2.,13.0207473073416,20.8712431403341,2.,            155P    175
20.1007473073416,20.8712431403341,2.,13.0207473073416,-0.354,        155P    176
0.354,-0.504,0.504;                                                  155P    177
128,1,1,1,1,0,0,1,0,0,-0.001,-0.001,1.007,1.007,-0.001,-0.001,       157P    178
0.501,0.501,1.,1.,1.,1.,20.8712431403341,1.99,13.0307473073416,      157P    179
10.7912431403341,1.99,13.0307473073416,20.8712431403341,7.01,        157P    180
13.0307473073416,10.7912431403341,7.01,13.0307473073416,-0.001,      157P    181
1.007,-0.001,0.501;                                                  157P    182
128,1,1,1,1,0,0,1,0,0,-0.001,-0.001,0.707,0.707,-0.001,-0.001,       159P    183
0.501,0.501,1.,1.,1.,1.,20.8612431403341,1.99,20.1007473073416,      159P    184
20.8612431403341,1.99,13.0207473073416,20.8612431403341,7.01,        159P    185
20.1007473073416,20.8612431403341,7.01,13.0207473073416,-0.001,      159P    186
0.707,-0.001,0.501;                                                  159P    187
128,1,1,1,1,0,0,1,0,0,-0.001,-0.001,1.007,1.007,-0.001,-0.001,       161P    188
0.501,0.501,1.,1.,1.,1.,10.7912431403341,1.99,20.0907473073416,      161P    189
20.8712431403341,1.99,20.0907473073416,10.7912431403341,7.01,        161P    190
20.0907473073416,20.8712431403341,7.01,20.0907473073416,-0.001,      161P    191
1.007,-0.001,0.501;                                                  161P    192
128,1,1,1,1,0,0,1,0,0,-0.001,-0.001,0.707,0.707,-0.001,-0.001,       163P    193
0.501,0.501,1.,1.,1.,1.,10.8012431403341,1.99,13.0207473073416,      163P    194
10.8012431403341,1.99,20.1007473073416,10.8012431403341,7.01,        163P    195
13.0207473073416,10.8012431403341,7.01,20.1007473073416,-0.001,      163P    196
0.707,-0.001,0.501;                                                  163P    197
128,1,1,1,1,0,0,1,0,0,-0.354,-0.354,0.354,0.354,-0.504,-0.504,       165P    198
0.504,0.504,1.,1.,1.,1.,10.7912431403341,7.,13.0207473073416,        165P    199
10.7912431403341,7.,20.1007473073416,20.8712431403341,7.,            165P    200
13.0207473073416,20.8712431403341,7.,20.1007473073416,-0.354,        165P    201
0.354,-0.504,0.504;                                                  165P    202
128,1,1,1,1,0,0,1,0,0,-0.001,-0.001,0.301,0.301,-0.001,-0.001,       167P    203
0.201,0.201,1.,1.,1.,1.,12.4312431403341,-0.01,14.3507473073416,     167P    204
12.4312431403341,-0.01,17.3707473073416,12.4312431403341,2.01,       167P    205
14.3507473073416,12.4312431403341,2.01,17.3707473073416,-0.001,      167P    206
0.301,-0.001,0.201;                                                  167P    207
128,1,1,1,1,0,0,1,0,0,-0.001,-0.001,0.101,0.101,-0.001,-0.001,       169P    208
0.201,0.201,1.,1.,1.,1.,13.4412431403341,-0.01,14.3607473073416,     169P    209
12.4212431403341,-0.01,14.3607473073416,13.4412431403341,2.01,       169P    210
14.3607473073416,12.4212431403341,2.01,14.3607473073416,-0.001,      169P    211
0.101,-0.001,0.201;                                                  169P    212
128,1,1,1,1,0,0,1,0,0,-0.001,-0.001,0.301,0.301,-0.001,-0.001,       171P    213
0.201,0.201,1.,1.,1.,1.,13.4312431403341,-0.01,17.3707473073416,     171P    214
13.4312431403341,-0.01,14.3507473073416,13.4312431403341,2.01,       171P    215
17.3707473073416,13.4312431403341,2.01,14.3507473073416,-0.001,      171P    216
0.301,-0.001,0.201;                                                  171P    217
128,1,1,1,1,0,0,1,0,0,-0.001,-0.001,0.101,0.101,-0.001,-0.001,       173P    218
0.201,0.201,1.,1.,1.,1.,12.4212431403341,-0.01,17.3607473073416,     173P    219
13.4412431403341,-0.01,17.3607473073416,12.4212431403341,2.01,       173P    220
17.3607473073416,13.4412431403341,2.01,17.3607473073416,-0.001,      173P    221
0.101,-0.001,0.201;                                                  173P    222
128,1,1,1,1,0,0,1,0,0,-0.051,-0.051,0.051,0.051,-0.151,-0.151,       175P    223
0.151,0.151,1.,1.,1.,1.,13.4412431403341,0.,17.3707473073416,        175P    224
12.4212431403341,0.,17.3707473073416,13.4412431403341,0.,            175P    225
14.3507473073416,12.4212431403341,0.,14.3507473073416,-0.051,        175P    226
0.051,-0.151,0.151;                                                  175P    227
502,24,17.7312431403341,0.,17.3607473073416,17.7312431403341,0.,     177P    228
14.3607473073416,17.7312431403341,2.,17.3607473073416,               177P    229
17.7312431403341,2.,14.3607473073416,18.7312431403341,0.,            177P    230
14.3607473073416,18.7312431403341,2.,14.3607473073416,               177P    231
18.7312431403341,0.,17.3607473073416,18.7312431403341,2.,            177P    232
17.3607473073416,10.8012431403341,2.,20.0907473073416,               177P    233
10.8012431403341,2.,13.0307473073416,20.8612431403341,2.,            177P    234
13.0307473073416,20.8612431403341,2.,20.0907473073416,               177P    235
12.4312431403341,2.,14.3607473073416,12.4312431403341,2.,            177P    236
17.3607473073416,13.4312431403341,2.,17.3607473073416,               177P    237
13.4312431403341,2.,14.3607473073416,10.8012431403341,7.,            177P    238
13.0307473073416,20.8612431403341,7.,13.0307473073416,               177P    239
20.8612431403341,7.,20.0907473073416,10.8012431403341,7.,            177P    240
20.0907473073416,12.4312431403341,0.,17.3607473073416,               177P    241
12.4312431403341,0.,14.3607473073416,13.4312431403341,0.,            177P    242
14.3607473073416,13.4312431403341,0.,17.3607473073416;               177P    243
504,36,73,177,1,177,2,75,177,1,177,3,77,177,4,177,3,79,177,2,        179P    244
177,4,81,177,2,177,5,83,177,6,177,4,85,177,5,177,6,87,177,5,177,     179P    245
7,89,177,8,177,6,91,177,7,177,8,93,177,7,177,1,95,177,3,177,8,       179P    246
97,177,9,177,10,99,177,10,177,11,101,177,11,177,12,103,177,12,       179P    247
177,9,105,177,13,177,14,107,177,14,177,15,109,177,15,177,16,111,     179P    248
177,16,177,13,113,177,10,177,17,115,177,18,177,17,117,177,11,        179P    249
177,18,119,177,19,177,18,121,177,12,177,19,123,177,20,177,19,        179P    250
125,177,9,177,20,127,177,17,177,20,129,177,21,177,22,131,177,21,     179P    251
177,14,133,177,22,177,13,135,177,22,177,23,137,177,23,177,16,        179P    252
139,177,23,177,24,141,177,24,177,15,143,177,24,177,21;               179P    253
406,1,7HKey Cap;                                                     181P    254
314,62.7450980392157,62.7450980392157,62.7450980392157,13HSteel      183P    255
- Satin;                                                             183P    256
S      1G      3D    184P    256                                        T      1
